<?xml version="1.0" standalone="no"?>
<!DOCTYPE svg PUBLIC "-//W3C//DTD SVG 20010904//EN"
 "http://www.w3.org/TR/2001/REC-SVG-20010904/DTD/svg10.dtd">
<svg version="1.0" xmlns="http://www.w3.org/2000/svg"
 width="381.000000pt" height="119.000000pt" viewBox="0 0 381.000000 119.000000"
 preserveAspectRatio="xMidYMid meet">

<g transform="translate(0.000000,119.000000) scale(0.100000,-0.100000)"
fill="#000000" stroke="none">
<path d="M3024 1105 c-47 -47 -17 -88 52 -71 31 8 60 62 43 82 -19 23 -67 17
-95 -11z"/>
<path d="M540 1105 c-11 -13 -28 -14 -99 -9 -96 7 -149 -3 -201 -38 -48 -33
-72 -70 -77 -122 -5 -43 -3 -48 29 -79 20 -17 64 -43 99 -56 75 -27 109 -55
109 -88 0 -72 -147 -117 -232 -72 -24 13 -48 67 -48 109 0 55 -16 31 -43 -65
-32 -113 -33 -124 -9 -101 15 13 38 16 123 14 122 -2 173 11 229 60 111 95 91
181 -57 242 -42 18 -85 37 -95 43 -27 18 -23 69 8 98 22 20 36 24 91 24 60 0
67 -2 94 -33 22 -24 29 -42 29 -73 0 -67 21 -41 50 64 26 94 26 114 0 82z"/>
<path d="M545 936 c-28 -24 -47 -47 -42 -52 4 -4 21 5 37 21 16 16 33 26 36
22 4 -4 -5 -50 -20 -103 -34 -119 -30 -151 24 -196 l38 -33 -34 -37 c-28 -31
-34 -46 -34 -81 0 -48 17 -71 62 -82 21 -6 33 -1 54 20 l27 27 -44 22 c-33 17
-45 29 -47 49 -5 41 12 62 86 100 104 55 166 115 209 205 33 69 65 111 86 112
13 0 8 -19 -48 -172 -30 -83 -55 -152 -55 -154 0 -6 63 -4 86 2 16 4 28 23 44
67 38 105 141 237 185 237 28 0 26 -26 -10 -126 -41 -113 -42 -148 -4 -177 31
-23 47 -17 111 41 28 25 43 33 46 24 10 -31 50 -64 87 -72 80 -18 169 23 254
116 29 31 50 58 47 61 -2 2 -27 -19 -55 -47 -49 -49 -118 -89 -153 -90 -89 -1
-109 116 -41 242 48 87 116 97 129 18 6 -34 10 -40 31 -40 23 0 73 40 73 58 0
6 -8 20 -19 33 -27 34 -122 39 -180 10 -88 -45 -162 -135 -176 -212 -7 -39
-68 -109 -82 -95 -5 4 11 63 35 130 43 124 44 143 14 179 -34 39 -103 8 -190
-86 -23 -26 -44 -47 -47 -47 -2 0 2 18 10 41 34 94 -31 143 -105 79 -41 -34
-50 -37 -50 -12 0 44 -58 57 -97 20 l-23 -22 22 -24 c51 -54 13 -180 -74 -242
-55 -40 -76 -45 -99 -24 -26 23 -24 67 7 185 25 93 26 100 10 124 -25 39 -62
33 -121 -19z"/>
<path d="M1766 939 c-53 -47 -63 -73 -13 -35 19 14 36 23 40 20 3 -3 -17 -70
-44 -148 -28 -77 -53 -149 -56 -158 -4 -15 1 -18 34 -18 52 0 68 14 93 83 26
69 112 201 146 223 31 21 58 14 62 -14 4 -30 26 -38 60 -22 26 11 26 11 10 -7
-30 -33 -58 -107 -58 -155 0 -112 126 -149 253 -74 76 44 147 147 147 212 0
20 10 39 28 57 56 54 56 35 -7 -135 -27 -73 -52 -141 -56 -150 -6 -15 -2 -18
26 -18 66 0 75 8 104 81 43 109 142 229 189 229 23 0 20 -16 -20 -135 -39
-115 -39 -145 0 -171 20 -12 29 -13 48 -4 34 18 108 92 108 109 0 8 -15 -1
-35 -22 -37 -38 -55 -46 -55 -26 0 7 19 63 41 126 34 95 40 120 32 146 -21 75
-110 52 -205 -52 -39 -44 -49 -50 -44 -31 18 68 18 81 2 105 -23 35 -56 32
-110 -10 -44 -33 -46 -34 -56 -15 -33 62 -166 68 -246 11 -25 -17 -47 -31 -48
-29 -25 55 -34 63 -68 66 -52 4 -92 -20 -145 -88 -49 -63 -60 -70 -43 -26 24
63 3 116 -44 116 -13 0 -44 -18 -70 -41z m576 -5 c23 -49 -26 -200 -87 -272
-51 -61 -107 -63 -119 -5 -14 62 52 233 107 279 39 33 84 32 99 -2z"/>
<path d="M2953 951 c-39 -28 -73 -71 -56 -71 4 0 19 12 35 27 15 14 31 23 35
19 4 -4 -12 -63 -36 -132 -47 -134 -48 -163 -7 -190 20 -12 29 -13 48 -4 35
18 108 92 108 109 0 10 -14 1 -36 -22 -67 -68 -68 -56 -11 109 40 117 41 125
27 151 -22 39 -57 40 -107 4z"/>
<path d="M3194 952 c-50 -36 -83 -95 -68 -120 15 -23 35 -26 58 -9 18 13 18
18 6 46 -17 41 -8 48 43 32 23 -7 57 -15 75 -19 l34 -7 -84 -75 c-45 -41 -111
-99 -145 -129 -66 -56 -84 -95 -40 -89 16 2 21 9 19 26 -4 29 24 29 103 2 32
-11 67 -20 78 -20 28 0 81 35 97 65 16 31 22 31 35 3 29 -62 125 -79 213 -36
47 23 179 145 168 155 -3 4 -28 -17 -56 -46 -47 -50 -116 -90 -152 -91 -48 0
-88 42 -88 94 0 18 8 25 43 35 80 24 184 72 204 94 35 38 36 56 4 88 -80 79
-260 -2 -328 -149 -19 -41 -29 -52 -43 -47 -9 3 -27 -3 -40 -13 -22 -18 -22
-19 -5 -46 29 -44 8 -50 -74 -23 l-73 25 151 138 c83 77 146 141 140 143 -6 2
-21 -6 -33 -18 l-23 -21 -64 20 c-85 26 -109 25 -155 -8z m476 -47 c0 -41 -28
-66 -107 -98 -47 -19 -63 -22 -63 -12 0 19 36 96 57 122 43 53 113 45 113 -12z"/>
<path d="M1439 150 c-15 -85 -15 -90 2 -90 12 0 19 9 21 28 2 20 9 28 28 30
34 5 70 40 70 68 0 29 -35 54 -75 54 l-31 0 -15 -90z m79 48 c14 -14 -2 -48
-23 -48 -20 0 -24 11 -14 38 9 25 19 28 37 10z"/>
<path d="M1579 150 c-15 -86 -15 -90 3 -90 11 0 18 7 18 19 0 26 10 51 20 51
5 0 14 -16 20 -35 8 -24 18 -35 31 -35 18 0 18 2 5 34 -13 32 -13 36 5 52 42
38 8 94 -56 94 l-31 0 -15 -90z m80 46 c9 -11 8 -18 -4 -30 -29 -29 -49 -17
-34 22 10 25 22 28 38 8z"/>
<path d="M1752 215 c-69 -58 -40 -154 46 -155 79 0 125 112 66 159 -36 28 -76
26 -112 -4z m90 -22 c24 -22 23 -52 -4 -80 -25 -27 -50 -29 -72 -7 -22 21 -20
60 4 84 24 24 47 25 72 3z"/>
<path d="M1937 226 c-4 -10 2 -16 16 -18 19 -3 22 -8 18 -43 -5 -57 -17 -76
-48 -73 -32 4 -42 -18 -13 -27 54 -17 82 13 95 100 4 22 9 48 12 58 4 14 -2
17 -35 17 -25 0 -42 -5 -45 -14z"/>
<path d="M2041 188 c-6 -29 -13 -70 -17 -91 l-6 -37 51 0 c39 0 51 4 51 15 0
10 -10 15 -31 15 -26 0 -30 3 -27 23 2 14 11 23 25 25 32 5 39 32 7 32 -39 0
-28 34 13 38 17 2 34 10 37 18 4 11 -5 14 -44 14 l-49 0 -10 -52z"/>
<path d="M2204 230 c-82 -33 -63 -170 24 -170 35 0 68 22 58 39 -6 9 -11 9
-22 0 -20 -17 -63 -2 -76 26 -21 47 37 99 83 75 31 -17 52 5 25 26 -22 16 -60
17 -92 4z"/>
<path d="M2320 226 c0 -8 10 -16 23 -18 24 -3 23 -2 11 -96 -5 -42 -4 -52 9
-52 10 0 18 21 28 73 13 67 16 72 42 75 15 2 27 9 27 18 0 11 -16 14 -70 14
-54 0 -70 -3 -70 -14z"/>
</g>
</svg>
